<svg t="1699502855787" class="icon" viewBox="0 0 2000 1024" version="1.1" xmlns="http://www.w3.org/2000/svg" p-id="9501" width="200" height="200"><path d="M205.491102 406.67444A388.14986 388.14986 0 1 0 593.547769 18.710967a388.056667 388.056667 0 0 0-388.056667 387.963473z" fill="#92CAEE" p-id="9502"></path><path d="M186.386487 406.67444a412.56649 412.56649 0 0 0 265.414359 381.53314A407.161282 407.161282 0 0 0 941.251762 194.193845 411.448171 411.448171 0 0 0 518.061242 6.689038C326.176353 42.009278 189.741444 213.764426 186.386487 406.67444c-0.465966 24.323437 37.277297 24.323437 37.743264 0C226.925549 252.719202 321.330304 111.90421 467.73689 59.436414a369.231632 369.231632 0 0 1 443.506647 535.301992A372.772975 372.772975 0 0 1 521.882165 768.916579c-172.96666-34.667887-294.677037-187.504806-297.566027-362.242139C223.663785 382.164617 186.386487 382.164617 186.386487 406.67444z" fill="#49494A" p-id="9503"></path><path d="M1777.195158 900.598632L1127.638249 250.66895a100.55551 100.55551 0 0 0-142.026503 0L335.495677 900.598632z" fill="#93C8A5" p-id="9504"></path><path d="M798.200133 435.564346L335.495677 898.268801h925.315718z" fill="#8CA38F" p-id="9505"></path><path d="M1633.118403 729.775416l-286.569224-286.569224-128.793063-128.886256c-31.03335-30.940157-62.532667-72.69073-100.55551-95.243495-96.641394-57.407038-170.543636 43.614438-231.212438 104.28324L621.692129 587.65572 322.07585 887.271998A19.104615 19.104615 0 0 0 335.495677 919.516861h1441.699481a19.104615 19.104615 0 0 0 13.419827-32.244863l-77.536778-77.536778c-17.147557-17.147557-43.894018 9.319324-26.653268 26.746461l77.443585 77.443585 13.326634-32.244862H335.495677l13.326634 32.244862 609.204235-609.204234c21.620833-21.620833 43.987211-51.442671 74.554595-60.855188 42.402926-13.233441 73.063503 11.369576 101.114669 39.513935L1269.29198 419.441915q168.493385 168.586578 337.079962 337.079962c17.24075 17.24075 43.987211-9.319324 26.746461-26.653267z" fill="#49494A" p-id="9506"></path><path d="M1096.325319 395.864024l41.750574-33.176795h94.125176L1127.638249 257.938023a100.369124 100.369124 0 0 0-142.026503 0l-103.444501 103.444501v1.304705h174.457753z" fill="#ECEBEB" p-id="9507"></path><path d="M1109.745147 409.190658a271.844692 271.844692 0 0 0 30.846963-24.509823c9.319324-9.319324 14.631339-4.752855-1.491092-3.075377a74.554595 74.554595 0 0 1 13.699407 0c25.348562 3.634537 53.586115 0 79.400644 0a19.104615 19.104615 0 0 0 13.326634-32.244862c-54.611241-54.611241-118.169033-151.904987-206.889001-138.205581-37.277297 5.871174-61.321154 27.957973-87.32207 54.145275l-63.930565 63.837372c-9.319324 9.319324-24.41663 18.638649-24.41663 33.549567a19.197808 19.197808 0 0 0 18.638649 18.638649h122.362729a416.760186 416.760186 0 0 1 50.603931 0c-14.165373-1.770672-9.319324-3.075377 4.846049 8.294199l23.298311 19.291001c18.638649 15.470078 45.478303-11.183189 26.746461-26.653267-12.953861-10.717223-27.957973-29.915031-43.894018-36.158979-13.699407-5.405208-31.31293-2.516218-45.757883-2.516218h-137.926l18.638648 18.638649c0 2.982184 33.829147-27.30562 37.277298-31.126543l34.20192-34.108727c25.721335-25.721335 49.951579-52.840569 89.745094-49.858386 34.388307 2.516218 55.915946 27.957973 78.655098 50.697125l77.816358 77.816358 13.419827-32.244862c-28.983099 0-61.693927-4.752855-90.117866 0-23.018731 3.820923-40.911834 24.230243-59.084517 38.675196s8.387392 42.123346 27.305621 27.119234z" fill="#49494A" p-id="9508"></path><path d="M1168.45689 900.598632L650.116068 382.164617a79.86661 79.86661 0 0 0-113.136598 0L18.638649 900.598632z" fill="#66C089" p-id="9509"></path><path d="M1370.779422 325.503125s301.38695 0.838739 363.453651 0a46.037462 46.037462 0 0 0-3.354957-91.981731h-180.328927a46.037462 46.037462 0 0 0-46.037462-46.596622h-56.754685a46.037462 46.037462 0 0 0-46.130656 46.596622h-30.846964a46.130656 46.130656 0 1 0 0 92.168118z" fill="#ECEBEB" p-id="9510"></path><path d="M1370.779422 344.88732c121.151217 0 242.302434 1.491092 363.453651 0a19.197808 19.197808 0 0 0 18.638649-18.638649l-13.885794 18.638649c83.873919-16.867977 65.235271-125.624493-15.190498-129.165836-57.686618-2.516218-115.932395 0-173.712207 0l18.638649 18.638649c-12.301508-91.981732-174.364559-91.795345-186.386488 0l18.638649-18.638649c-37.743264 0-75.206948 0.931932-91.236185 42.216539-17.893103 46.037462 17.52033 82.010054 60.389222 87.788036 23.950664 3.16857 23.764277-34.574693 0-37.836457-56.941072-7.641846-15.376885-50.137965 6.989493-54.424854a135.968943 135.968943 0 0 1 23.85747 0 19.477388 19.477388 0 0 0 18.638649-18.638649c5.405208-40.445868 105.867525-39.513935 111.17954 0a19.291001 19.291001 0 0 0 18.638648 18.638649h155.725911a107.638197 107.638197 0 0 1 19.756967 0c27.119234 5.777981 56.568299 44.266791 3.44815 54.984014a18.638649 18.638649 0 0 0-13.885793 18.172682l18.638649-18.638649c-121.151217 1.491092-242.302434 0-363.453651 0-23.205118-1.491092-23.298311 36.345365 1.118319 36.904525z" fill="#49494A" p-id="9511"></path><path d="M514.985865 461.378874l55.915946 46.596622 58.338971-46.596622h95.429881l-74.554595-74.554595a80.052996 80.052996 0 0 0-113.136598 0l-74.554595 74.554595z" fill="#ECEBEB" p-id="9512"></path><path d="M501.566038 474.705508l55.915946 46.596622a19.663774 19.663774 0 0 0 26.746461 0l36.345365-28.983099a196.451358 196.451358 0 0 0 17.613523-13.978986c7.921426-8.014619-16.122431 0.465966-2.609411 2.050251 28.796712 3.541343 59.830062 0 88.906355 0a18.638649 18.638649 0 0 0 13.326634-32.244862C698.949328 408.445112 655.894049 344.88732 593.547769 344.88732s-104.842399 63.837372-144.449527 103.4445a19.104615 19.104615 0 0 0 13.419827 32.244863h52.467796c24.323437 0 24.323437-37.743264 0-37.743264h-52.467796l13.326634 32.244862C504.455028 446.095183 549.840138 382.164617 593.547769 382.164617s88.906355 63.464599 117.703067 92.354505l13.419827-32.244862c-29.262679 0-66.35359-6.61672-94.777529 0-26.560074 6.150754-51.163091 35.133853-72.224763 51.908636h26.746461l-55.915947-46.596622c-18.731842-15.004112-45.664689 11.555962-26.932847 27.119234z" fill="#49494A" p-id="9513"></path><path d="M664.001862 233.241814m-48.926453 0a48.926453 48.926453 0 1 0 97.852906 0 48.926453 48.926453 0 1 0-97.852906 0Z" fill="#F3D24F" p-id="9514"></path><path d="M694.010086 233.055427c-2.143445 38.675196-60.296029 39.047969-60.296029 0s57.873004-38.395616 60.016449 0c1.304705 24.230243 39.047969 24.41663 37.277298 0A67.844681 67.844681 0 1 0 661.672031 300.993302 68.963 68.963 0 0 0 731.75335 233.055427c1.304705-24.043857-36.438558-24.043857-37.743264 0zM856.16633 561.654805l-130.470541-130.470541c-27.398814-27.30562-55.915946-65.980817-91.608959-82.289635-82.941987-37.277297-143.797175 52.840569-194.587493 103.724081L5.312015 887.271998A19.104615 19.104615 0 0 0 18.638649 919.516861h1149.818241a19.104615 19.104615 0 0 0 13.326634-32.244863Q1068.926506 774.508173 956.255874 661.744349c-17.147557-17.24075-43.894018 9.319324-26.653268 26.653267l225.434457 225.52765 13.419827-32.244862H18.638649l13.326634 32.244862 378.830535-378.644149 85.924171-86.017364c27.30562-27.30562 63.278213-78.468711 106.426685-69.894933 40.725448 8.014619 78.189132 60.855188 106.61307 89.279128L829.419869 588.401266c17.147557 17.147557 43.894018-9.319324 26.653268-26.746461zM209.871185 640.123516c24.323437 0 24.41663-37.743264 0-37.743264s-24.323437 37.743264 0 37.743264zM104.00366 753.819273l85.924171-85.830977c17.24075-17.24075-9.319324-43.987211-26.746461-26.746461L77.350392 726.979619c-17.24075 17.147557 9.319324 43.894018 26.653268 26.653268z" fill="#49494A" p-id="9515"></path><path d="M59.830062 790.257832c24.323437 0 24.323437-37.836457 0-37.836457s-24.323437 37.836457 0 37.836457zM919.444543 573.397153c24.323437 0 24.323437-37.836457 0-37.836456s-24.41663 37.836457 0 37.836456zM1077.873057 688.490809L979.181412 588.121686c-17.054364-17.333943-43.800825 9.319324-26.746461 26.746461q49.485612 50.044772 98.691645 100.369123c17.054364 17.427137 43.800825-9.319324 26.746461-26.746461z" fill="#49494A" p-id="9516"></path><path d="M1159.417145 771.432796l-49.671998-50.417544c-17.054364-17.333943-43.800825 9.319324-26.653268 26.746461l49.578805 50.417544c17.147557 17.333943 43.800825-9.319324 26.746461-26.746461zM1274.324415 887.271998q-38.20923-38.302423-76.232073-76.698039c-17.147557-17.24075-43.800825 9.319324-26.746461 26.746461q38.022843 38.48881 76.232073 76.604846c17.24075 17.24075 43.987211-9.319324 26.746461-26.653268zM1478.883585 396.982343h87.601649c24.323437 0 24.323437-37.836457 0-37.836457h-87.601649c-24.323437 0-24.41663 37.836457 0 37.836457zM1627.060843 396.982343H1752.032982c24.230243 0 24.323437-37.836457 0-37.836457h-124.972139c-24.323437 0-24.323437 37.836457 0 37.836457zM1680.367378 620.366548H1724.075009c24.323437 0 24.323437-37.743264 0-37.743263h-43.800824c-24.323437 0-24.323437 37.743264 0 37.743263zM1777.195158 620.366548c24.323437 0 24.41663-37.743264 0-37.743263s-24.323437 37.743264 0 37.743263z" fill="#49494A" p-id="9517"></path><path d="M444.997739 371.540588s-318.814087 0.931932-381.067174 0A46.130656 46.130656 0 0 1 67.285522 279.652049H219.004123a46.596622 46.596622 0 0 1 46.130655-46.596622h56.754686a46.596622 46.596622 0 0 1 46.596622 46.130656h76.977619a46.130656 46.130656 0 0 1 0 92.168118z" fill="#ECEBEB" p-id="9518"></path><path d="M444.997739 352.715552c-127.022391 0-254.044782 1.491092-381.067174 0l18.638649 18.638649a18.638649 18.638649 0 0 0-13.885793-18.638649Q32.338056 298.290698 68.031068 298.290698h3.634536a63.185019 63.185019 0 0 1 14.538146 0H219.004123a19.477388 19.477388 0 0 0 18.638649-18.638649c5.405208-40.352675 105.867525-39.513935 111.179539 0a19.477388 19.477388 0 0 0 18.638649 18.638649h47.248975a122.455922 122.455922 0 0 1 24.789402 0c33.269988 7.548653 48.460487 48.55368 0 55.077207-24.043857 3.261764-13.7926 39.607129 10.064871 36.438558 54.424854-7.362266 81.637282-75.206948 37.277297-113.229791-30.194611-25.814529-82.010054-16.122431-118.821385-16.122431l18.638648 18.638649c-12.301508-91.888538-174.364559-91.888538-186.386487 0l18.638649-18.638649c-49.671999 0-101.487442-4.566469-150.973055 0-78.282325 7.269073-87.694842 113.322984-9.319325 129.165836l-13.51302-18.172683a19.104615 19.104615 0 0 0 18.638649 18.638649c127.022391 1.584285 254.044782 0 381.067173 0 24.509823 0.372773 24.509823-37.463684 0.186387-37.370491zM89.93148 437.335018h31.965283a18.638649 18.638649 0 1 0 0-37.743264H89.93148a18.638649 18.638649 0 1 0 0 37.743264zM165.697587 437.335018c24.323437 0 24.41663-37.743264 0-37.743264s-24.323437 37.743264 0 37.743264z" fill="#49494A" p-id="9519"></path><path d="M51.349477 437.335018c24.323437 0 24.323437-37.743264 0-37.743264s-24.323437 37.743264 0 37.743264z" fill="#49494A" p-id="9520"></path></svg>